<?xml version="1.0" encoding="UTF-8" standalone="no"?>
<svg
   id="Layer_2"
   viewBox="0 0 457.40585 402.86935"
   version="1.1"
   sodipodi:docname="Logo.svg"
   inkscape:export-batch-name="Logo"
   inkscape:export-batch-path="Output"
   width="457.40585"
   height="402.86935"
   xmlns:inkscape="http://www.inkscape.org/namespaces/inkscape"
   xmlns:sodipodi="http://sodipodi.sourceforge.net/DTD/sodipodi-0.dtd"
   xmlns="http://www.w3.org/2000/svg"
   xmlns:svg="http://www.w3.org/2000/svg">
  <sodipodi:namedview
     id="namedview11"
     pagecolor="#ffffff"
     bordercolor="#000000"
     borderopacity="0.25"
     inkscape:showpageshadow="2"
     inkscape:pageopacity="0.0"
     inkscape:pagecheckerboard="0"
     inkscape:deskcolor="#d1d1d1" />
  <defs
     id="defs11">
    <style
       id="style1">
      .cls-1 {
        fill: url(#linear-gradient-2);
      }

      .cls-2 {
        fill: url(#linear-gradient-10);
      }

      .cls-3 {
        fill: #fff;
      }

      .cls-4 {
        fill: url(#linear-gradient-4);
      }

      .cls-5 {
        fill: url(#linear-gradient-3);
      }

      .cls-6 {
        fill: url(#linear-gradient-5);
      }

      .cls-7 {
        fill: url(#linear-gradient-8);
      }

      .cls-8 {
        fill: url(#linear-gradient-7);
      }

      .cls-9 {
        fill: url(#linear-gradient-9);
      }

      .cls-10 {
        fill: url(#linear-gradient-6);
      }

      .cls-11 {
        fill: url(#linear-gradient);
      }
    </style>
    <linearGradient
       id="linear-gradient-2"
       x1="551.31"
       y1="550.81"
       x2="245.53999"
       y2="245.03999"
       gradientUnits="userSpaceOnUse">
      <stop
         offset="0"
         stop-color="#d84799"
         id="stop3" />
      <stop
         offset=".76"
         stop-color="#3fc6ec"
         id="stop4" />
      <stop
         offset="1"
         stop-color="#3fc6ec"
         id="stop5" />
    </linearGradient>
  </defs>
  <g
     id="Layer_1-2"
     data-name="Layer_1"
     transform="translate(-170.36704,-195.80991)">
    <path
       id="Brain"
       class="cls-1"
       d="m 295.26,559.32 c -2.86,1.41 -5.48,3.29 -8.39,4.04 -14.18,3.7 -28.91,-5.43 -32.46,-19.82 -1.96,-7.98 -1.57,-15.72 2.25,-23.14 0.29,-0.55 0.39,-1.2 0.2,-2.06 -0.38,0.35 -0.85,0.63 -1.12,1.05 -4.77,7.62 -12.16,10.01 -20.5,9.51 -21.67,-1.3 -31.03,-20.03 -29.95,-36.28 0.02,-0.32 0.16,-0.64 0.34,-1.31 0.9,0.24 1.76,0.42 2.58,0.71 5.6,1.94 11.21,3.77 17.28,3.24 5.25,-0.46 9.63,-3.46 10.79,-7.46 1.85,-6.41 -1.73,-11.63 -8.37,-11.6 -8.12,0.03 -15.78,-1.8 -22.99,-5.27 -3.19,-1.53 -6.39,-3.72 -8.6,-6.42 -3.97,-4.85 -8.49,-8.76 -13.82,-12.04 -14.62,-8.98 -16.35,-31.58 -3.43,-42.37 3.92,-3.27 8.44,-4.54 13.24,-2.93 3.71,1.25 7.24,3.18 10.64,5.16 5.98,3.48 11.71,7.39 17.7,10.84 8.57,4.94 17.93,7.52 27.8,7.61 13.43,0.12 21.65,7.41 26.81,18.89 3.38,7.53 6.23,15.31 9.28,23 3.33,8.39 6.43,16.84 11.93,24.21 11.06,14.83 29.15,17.38 42.37,13.4 2.13,-0.64 4.16,-2.25 5.74,-3.89 2.5,-2.6 2.74,-5.93 1.42,-9.22 -1.33,-3.32 -4.05,-4.9 -7.53,-5.06 -4.13,-0.19 -8.26,-0.16 -12.39,-0.33 -7.49,-0.31 -12.73,-4.35 -16.11,-10.65 -2.74,-5.11 -4.88,-10.55 -7.15,-15.9 -3.83,-9 -7.29,-18.17 -11.37,-27.05 -7.05,-15.34 -19.36,-23.58 -36.03,-25.47 -2.18,-0.25 -4.36,-0.54 -6.55,-0.61 -8.06,-0.26 -15.3,-3 -22.23,-6.95 -10.55,-6.02 -21.15,-11.94 -31.8,-17.78 -10.66,-5.84 -17.33,-14.31 -18.15,-26.77 -0.91,-13.8 8.98,-26.5 22.08,-28.55 4.01,-0.63 7.53,0.64 10.93,2.38 10.05,5.16 20.67,7.69 31.98,7.3 9.05,-0.32 17.71,-2.33 25.91,-6.2 2.75,-1.29 5.52,-2.55 8.19,-3.99 13.91,-7.53 27.67,0.45 31.42,14.38 2.01,7.45 1.34,14.9 0.12,22.34 -1.59,9.74 -2.24,19.5 0.01,29.18 4.8,20.67 16.78,36.17 34.78,47.14 6.63,4.04 13.5,7.69 19.98,11.94 16.12,10.58 24.67,25.5 24.74,44.96 0.08,23.63 0.2,47.26 0.04,70.89 -0.05,7.71 -2.32,14.85 -8.3,20.27 -5.91,5.35 -12.97,6.89 -20.53,5.19 -8.35,-1.88 -12.54,-10.67 -8.7,-18.51 2.91,-5.96 6.69,-11.51 10.1,-17.23 1.38,-2.32 2.92,-4.55 4.16,-6.94 2.19,-4.22 1.3,-9.28 -1.9,-11.79 -3.72,-2.92 -9.69,-2.91 -13.05,0.52 -2.15,2.19 -3.78,4.93 -5.4,7.57 -4.36,7.12 -8.24,14.55 -12.97,21.41 -5.13,7.46 -12.8,10.31 -21.71,9.02 -10.77,-1.55 -16.69,-11.35 -13.44,-21.76 0.07,-0.23 0.08,-0.49 0.13,-0.79 z m 286.69,-161.37 c -1.12,0.13 -2.25,0.22 -3.37,0.4 -6.76,1.15 -12.9,3.9 -18.78,7.3 -13.17,7.62 -24.39,17.45 -31.72,30.87 -4.43,8.11 -7.68,16.87 -11.24,25.44 -3.5,8.41 -6.28,17.13 -10.14,25.36 -7.67,16.34 -20.49,25.16 -38.97,24.52 -3.49,-0.12 -7.08,-0.72 -10.41,-1.79 -4.53,-1.46 -7.28,-6.74 -6.42,-11.15 0.92,-4.68 4.01,-6.88 9.71,-6.88 2.87,0 5.74,0.15 8.61,0.02 7.94,-0.35 14.37,-3.43 18.39,-10.61 0.95,-1.69 1.95,-3.38 2.68,-5.16 4.44,-10.76 8.73,-21.59 13.22,-32.33 9.18,-21.91 22.92,-40.08 43.65,-52.35 12.54,-7.42 25.84,-12.45 40.75,-11.81 3.88,0.17 7.76,0.44 11.64,0.4 7.14,-0.07 13.83,-1.57 17.39,-8.6 5.18,-10.21 3.45,-24.92 -8.21,-32.89 -2.79,-1.91 -5.84,-2.58 -9.1,-1 -1.97,0.95 -4,1.81 -6,2.7 -13.06,5.82 -26.41,7.43 -40.15,2.57 -5.89,-2.08 -11.74,-4.25 -17.57,-6.48 -8.6,-3.3 -17.31,-5.73 -26.67,-4.35 -12.79,1.88 -21.33,11.3 -21.44,24.18 -0.04,4.44 0.88,8.88 1.16,13.33 0.45,6.97 1.62,14.03 0.93,20.9 -2.18,21.78 -12.97,38.8 -30.91,51.12 -7.01,4.81 -14.72,8.57 -21.92,13.13 -17.1,10.83 -26.78,25.95 -26.7,46.7 0.09,22.87 -0.02,45.75 0,68.62 0,2.52 0.13,5.07 0.52,7.56 2.27,14.52 14.5,23.36 28.16,20.46 8.77,-1.86 12.81,-9.97 8.87,-17.99 -1.07,-2.19 -2.37,-4.28 -3.66,-6.36 -3.78,-6.09 -7.78,-12.06 -11.37,-18.27 -2.78,-4.82 -1.61,-9.97 2.34,-12.63 4.13,-2.78 10.21,-2.03 13.58,1.89 1.58,1.84 2.87,3.96 4.11,6.06 3.82,6.46 7.42,13.06 11.38,19.44 3.28,5.28 7.61,9.45 14.01,10.89 6.55,1.48 12.49,0.34 17.38,-4.35 4.74,-4.56 6.21,-10.1 3.92,-16.44 -0.07,-0.19 0.06,-0.45 0.1,-0.72 2.29,1.36 4.41,2.9 6.75,3.95 11.24,5.03 25.02,-0.93 31.02,-8.69 7.84,-10.15 8.1,-21.06 2.79,-32.39 -0.37,-0.79 -0.72,-1.58 -1.08,-2.38 0.17,-0.19 0.34,-0.37 0.51,-0.56 4.79,6.82 11.49,9.47 19.44,9.52 7.82,0.04 14.86,-2.25 20.86,-7.21 9.57,-7.93 13.42,-20.58 10.12,-29.53 -2.14,0.65 -4.27,1.39 -6.45,1.96 -6.29,1.66 -12.61,2.55 -18.86,-0.16 -4.53,-1.97 -7.16,-7.29 -6,-11.91 0.97,-3.86 4.46,-5.83 9.87,-5.47 8.5,0.58 16.37,-1.74 24.05,-5.02 4.28,-1.83 8.06,-4.42 10.71,-8.23 3.12,-4.49 7.11,-7.79 11.85,-10.41 14.06,-7.78 16.57,-27.94 5.91,-39.95 -5.59,-6.3 -13.1,-7.84 -20.59,-3.99 -7.61,3.91 -13.54,9.65 -18.33,16.7 -1.55,2.28 -3.33,4.5 -5.38,6.33 -5.41,4.81 -12.54,2.41 -14.31,-4.61 -1.28,-5.08 0.77,-9.2 3.95,-12.75 4.5,-5.02 9.31,-9.76 13.99,-14.63 0.55,-0.57 1.09,-1.16 1.63,-1.73 -0.08,-0.18 -0.16,-0.35 -0.24,-0.53 z m -87.1,-172.4 c -1.32,-20.02 -21.85,-31.11 -39.2,-21.48 -1.64,0.91 -2.56,0.97 -3.82,-0.55 -2.56,-3.11 -5.71,-5.45 -9.7,-6.55 -10.94,-3.03 -22.85,2.12 -28.18,12.17 -2.54,4.8 -3.84,9.86 -3.83,15.3 0.06,28.02 0.08,56.03 0.11,84.05 0.04,41.43 0.14,82.87 0.05,124.3 -0.01,5.79 2.53,7.12 7.87,7.27 1,0.03 2.02,-0.19 3,-0.41 10.49,-2.3 20.01,-6.88 28.43,-13.36 16.28,-12.52 25.17,-28.52 22.17,-49.81 -0.99,-7 -2.06,-14.08 -2.01,-21.12 0.14,-18.97 13.76,-35.37 32.14,-40 13.45,-3.39 26.27,-1.14 38.95,3.45 9.27,3.36 18.32,7.74 28.28,8.43 8.98,0.62 17.43,-1.11 22.69,-9.67 3.04,-4.95 3.92,-10.44 3.18,-16.09 -1.76,-13.56 -8.98,-23.76 -20.04,-31.44 -6.39,-4.44 -13.45,-6.08 -21.16,-4.73 -4.83,0.85 -9.15,2.75 -12.77,6.67 0.49,-3.67 1.11,-6.86 1.33,-10.08 1.36,-20.18 -16.63,-36.18 -35.87,-32.04 -5.32,1.15 -9.66,3.77 -12.45,7.78 0.27,-3.83 1.06,-8 0.79,-12.1 z m -237.9,41.56 c -0.23,-0.11 -0.45,-0.24 -0.64,-0.41 -5.08,-4.47 -11.19,-4.95 -17.42,-4.06 -14.31,2.05 -23.97,10.54 -30.42,22.99 -2.74,5.28 -3.83,11.05 -2.39,16.96 2.72,11.09 10.68,16.71 21.2,18.9 15.99,3.32 30.84,-0.05 44.5,-8.84 11.67,-7.51 19.84,-17.65 23.23,-31.32 0.93,-3.76 1.65,-7.59 2.8,-11.29 1.34,-4.32 5.71,-6.94 10.05,-6.43 4.37,0.52 7.29,3.79 7.63,8.71 0.09,1.33 0.04,2.73 -0.28,4.02 -0.99,4.01 -1.82,8.1 -3.31,11.93 -2.6,6.66 -5.4,13.26 -8.61,19.64 -2.03,4.03 -2.41,3.76 1.32,6.15 13.35,8.56 20.99,20.7 21.51,36.6 0.25,7.53 -0.71,15.14 -1.64,22.66 -2.12,17.08 2.06,32.15 13.72,44.92 9.8,10.74 22.3,17.05 36.04,21.05 2.57,0.75 5.54,0.7 8.23,0.34 3.45,-0.47 4.52,-2.11 4.53,-5.56 0.03,-9.28 0.01,-18.57 0.03,-27.85 0.11,-54.09 0.26,-108.18 0.29,-162.28 0,-8.93 0.14,-17.93 -0.92,-26.77 -1.14,-9.5 -7.04,-16.31 -16,-19.58 -8.89,-3.24 -17.59,-2.23 -24.81,4.46 -2.3,2.13 -3.9,2.39 -6.72,0.96 -15.64,-7.96 -35.56,3.54 -36.5,21.05 -0.23,4.22 0.43,8.48 0.67,12.54 -3.57,-4.56 -8.65,-7.11 -14.9,-7.48 -6.17,-0.36 -11.97,0.86 -17.22,4.06 -9.49,5.78 -17.57,16.33 -13.26,34.04 -0.37,-0.06 -0.55,-0.05 -0.69,-0.12 z"
       style="fill:url(#linear-gradient-2)" />
  </g>
</svg>
