<?xml version="1.0" encoding="UTF-8" standalone="no"?>
<svg
   id="Layer_2"
   viewBox="0 0 33.3325 33.3125"
   version="1.1"
   sodipodi:docname="Logo.svg"
   inkscape:export-batch-name="Logo"
   inkscape:export-batch-path="Output"
   width="33.3325"
   height="33.3125"
   xmlns:inkscape="http://www.inkscape.org/namespaces/inkscape"
   xmlns:sodipodi="http://sodipodi.sourceforge.net/DTD/sodipodi-0.dtd"
   xmlns="http://www.w3.org/2000/svg"
   xmlns:svg="http://www.w3.org/2000/svg">
  <sodipodi:namedview
     id="namedview11"
     pagecolor="#ffffff"
     bordercolor="#000000"
     borderopacity="0.25"
     inkscape:showpageshadow="2"
     inkscape:pageopacity="0.0"
     inkscape:pagecheckerboard="0"
     inkscape:deskcolor="#d1d1d1" />
  <defs
     id="defs11">
    <style
       id="style1">
      .cls-1 {
        fill: url(#linear-gradient-2);
      }

      .cls-2 {
        fill: url(#linear-gradient-10);
      }

      .cls-3 {
        fill: #fff;
      }

      .cls-4 {
        fill: url(#linear-gradient-4);
      }

      .cls-5 {
        fill: url(#linear-gradient-3);
      }

      .cls-6 {
        fill: url(#linear-gradient-5);
      }

      .cls-7 {
        fill: url(#linear-gradient-8);
      }

      .cls-8 {
        fill: url(#linear-gradient-7);
      }

      .cls-9 {
        fill: url(#linear-gradient-9);
      }

      .cls-10 {
        fill: url(#linear-gradient-6);
      }

      .cls-11 {
        fill: url(#linear-gradient);
      }
    </style>
  </defs>
  <g
     id="Layer_1-2"
     data-name="Layer_1"
     transform="translate(-451.9475,-253.1075)">
    <path
       class="cls-3"
       d="m 467.5,253.88 c 0.38,-1.03 1.84,-1.03 2.22,0 l 1.13,3.09 c 1.79,4.9 5.66,8.76 10.56,10.55 l 3.09,1.13 c 1.04,0.38 1.04,1.84 0,2.22 l -3.09,1.13 c -4.9,1.79 -8.76,5.65 -10.56,10.55 l -1.13,3.09 c -0.38,1.04 -1.84,1.04 -2.22,0 l -1.13,-3.09 c -1.79,-4.9 -5.66,-8.76 -10.56,-10.55 l -3.09,-1.13 c -1.03,-0.38 -1.03,-1.84 0,-2.22 l 3.09,-1.13 c 4.9,-1.79 8.76,-5.65 10.56,-10.55 z"
       id="path11" />
  </g>
</svg>
