<?xml version="1.0" encoding="UTF-8" standalone="no"?>
<svg
   id="Layer_2"
   viewBox="0 0 799.99518 799.99255"
   version="1.1"
   sodipodi:docname="Logo.svg"
   inkscape:export-batch-name="Logo"
   inkscape:export-batch-path="Output"
   width="799.99518"
   height="799.99255"
   xmlns:inkscape="http://www.inkscape.org/namespaces/inkscape"
   xmlns:sodipodi="http://sodipodi.sourceforge.net/DTD/sodipodi-0.dtd"
   xmlns="http://www.w3.org/2000/svg"
   xmlns:svg="http://www.w3.org/2000/svg">
  <sodipodi:namedview
     id="namedview11"
     pagecolor="#ffffff"
     bordercolor="#000000"
     borderopacity="0.25"
     inkscape:showpageshadow="2"
     inkscape:pageopacity="0.0"
     inkscape:pagecheckerboard="0"
     inkscape:deskcolor="#d1d1d1" />
  <defs
     id="defs11">
    <style
       id="style1">
      .cls-1 {
        fill: url(#linear-gradient-2);
      }

      .cls-2 {
        fill: url(#linear-gradient-10);
      }

      .cls-3 {
        fill: #fff;
      }

      .cls-4 {
        fill: url(#linear-gradient-4);
      }

      .cls-5 {
        fill: url(#linear-gradient-3);
      }

      .cls-6 {
        fill: url(#linear-gradient-5);
      }

      .cls-7 {
        fill: url(#linear-gradient-8);
      }

      .cls-8 {
        fill: url(#linear-gradient-7);
      }

      .cls-9 {
        fill: url(#linear-gradient-9);
      }

      .cls-10 {
        fill: url(#linear-gradient-6);
      }

      .cls-11 {
        fill: url(#linear-gradient);
      }
    </style>
    <linearGradient
       id="linear-gradient"
       x1="679.02002"
       y1="678.17999"
       x2="120.69"
       y2="119.84"
       gradientUnits="userSpaceOnUse">
      <stop
         offset="0"
         stop-color="#48318f"
         id="stop1" />
      <stop
         offset="1"
         stop-color="#1c4698"
         id="stop2" />
    </linearGradient>
  </defs>
  <g
     id="Layer_1-2"
     data-name="Layer_1"
     transform="translate(4.5557062e-5)">
    <path
       id="Background"
       class="cls-11"
       d="m 396.15,0 c 1.52,0 3.04,0 4.56,0 0.98,0.2 1.94,0.49 2.93,0.6 4.27,0.49 8.61,0.61 12.81,1.45 16.4,3.27 31.17,10.25 43.54,21.47 25.19,22.85 36.37,51.55 33.59,85.41 -1.28,15.66 -6.12,30.48 -13,44.58 -2.47,5.07 -5.33,9.95 -8.07,14.89 -0.89,1.6 -0.52,2.39 1.23,2.91 6.37,1.89 12.71,3.91 19.07,5.82 1.95,0.59 3.96,1 5.99,1.5 0.68,-6.05 0.97,-11.7 1.99,-17.22 4.78,-25.88 17.19,-47.44 37.94,-63.71 23.96,-18.79 51.25,-24.05 80.73,-17.54 21.31,4.71 38.58,16.44 52.07,33.37 20.49,25.71 26.87,55.05 20.12,87.03 -4.97,23.57 -16.38,44.04 -32.58,61.81 -10.34,11.35 -22.41,20.65 -35.12,29.17 -3.71,2.49 -3.69,2.51 -2.16,6.58 0.38,1.02 0.87,2.05 1.03,3.11 0.32,2.13 1.32,2.52 3.34,2.03 14.45,-3.51 28.98,-6.47 43.87,-7.55 13.94,-1.01 27.79,-0.77 41.5,1.99 26.97,5.44 48.92,19.23 65.79,40.85 19.22,24.64 26.56,52.62 20.72,83.32 -5.19,27.32 -19.83,49.26 -41.92,66.09 -19.53,14.87 -42.16,20.86 -66.25,21.84 -8.55,0.35 -17.2,-0.17 -25.73,-1 -8.34,-0.81 -16.61,-2.4 -24.87,-3.86 -5.03,-0.89 -10,-2.17 -15,-3.27 -1.41,-0.31 -2.12,0.1 -2.41,1.68 -0.33,1.8 -1,3.56 -1.72,5.25 -0.74,1.73 -0.53,2.88 1.15,4 3.29,2.2 6.42,4.64 9.63,6.96 12.85,9.28 24.54,19.84 34.67,32.02 14.73,17.71 24.45,37.71 27.47,60.8 1.28,9.8 1.15,19.51 -0.85,29.1 -4.11,19.7 -13.41,36.7 -27.53,51.05 -10.16,10.32 -22.01,18.1 -35.75,22.69 -12.3,4.11 -24.96,5.71 -38.02,4.93 -12.63,-0.76 -24.66,-3.4 -35.97,-9.01 -13.85,-6.86 -25.19,-16.76 -34.66,-28.94 -14.76,-18.99 -22.11,-40.61 -23.23,-64.49 -0.1,-2.06 -0.01,-4.13 -0.01,-6.56 -8.28,3.12 -16.12,6.07 -24.07,9.07 0.31,0.75 0.43,1.14 0.62,1.49 10.85,20.87 18.4,42.74 20.33,66.36 1.19,14.61 -0.23,28.91 -4.72,42.85 -6.07,18.82 -15.74,35.42 -31.24,48.08 -21.45,17.51 -46.18,23.97 -73.34,19.74 -23.05,-3.58 -42.04,-14.96 -56.89,-33.01 -18.99,-23.09 -26.01,-49.83 -23.52,-79.25 1.25,-14.83 5.22,-29.09 11.1,-42.74 3.02,-7.02 6.6,-13.81 9.99,-20.67 0.89,-1.81 0.61,-2.64 -1.45,-3.24 -5.42,-1.58 -10.78,-3.38 -16.15,-5.13 -3.02,-0.98 -6.01,-2.04 -9.37,-3.2 0,1.43 0,2.43 0,3.42 0.12,12.28 -1.7,24.28 -5.33,36 -5.78,18.63 -15.98,34.41 -30.64,47.29 -8.46,7.44 -18.03,13.03 -28.64,16.73 -13.64,4.77 -27.69,5.97 -42.06,4.61 -11.84,-1.12 -22.95,-4.52 -33.35,-10.11 -18.08,-9.73 -31.88,-23.83 -41.7,-41.86 -11.48,-21.08 -13.54,-43.43 -8.85,-66.6 4.44,-21.9 14.86,-40.89 29.49,-57.54 10.12,-11.52 21.96,-21.15 35.24,-28.92 5.23,-3.06 5.22,-3.08 3.54,-8.78 -0.14,-0.48 -0.29,-0.97 -0.41,-1.46 -0.81,-3.19 -0.82,-3.24 -3.94,-2.31 -15.46,4.61 -31.29,7.12 -47.36,7.85 -12.2,0.55 -24.39,-0.04 -36.46,-2.42 -27.32,-5.39 -49.35,-19.31 -66.36,-41.16 -11.9,-15.27 -19.33,-32.48 -20.97,-51.96 -0.97,-11.56 -0.76,-23.02 1.91,-34.39 5.7,-24.3 18.76,-43.95 37.87,-59.68 10.77,-8.87 22.84,-15.49 36.29,-19.48 11.02,-3.27 22.24,-5.16 33.73,-5.55 11.66,-0.4 23.26,0.27 34.77,1.93 9.72,1.4 19.34,3.48 29.03,5.15 0.68,0.12 1.91,-0.55 2.21,-1.17 0.89,-1.89 1.32,-3.99 2.16,-5.91 0.74,-1.7 0.16,-2.56 -1.25,-3.5 -5.69,-3.77 -11.41,-7.51 -16.92,-11.53 -19.09,-13.92 -34.08,-31.34 -44.2,-52.76 -11.29,-23.9 -14.13,-48.86 -8.01,-74.59 5.24,-22.01 17.21,-40.04 34.66,-54.21 20.75,-16.85 44.79,-23.49 71.24,-20.26 26.61,3.26 47.28,17.05 63.26,38.08 13.16,17.33 19.25,37.23 19.97,58.87 0.04,1.21 0.31,2.41 0.5,3.83 9.57,-3.01 18.76,-5.9 28.19,-8.87 -0.63,-1.33 -1.1,-2.39 -1.62,-3.42 -3.6,-7.15 -7.67,-14.1 -10.73,-21.48 -9.03,-21.82 -12.3,-44.4 -7.31,-67.76 4.26,-19.93 13.83,-37 28.38,-51.25 13.82,-13.54 30.48,-21.48 49.48,-24.67 4,-0.65 8.01,-1.11 12.01,-1.66 z"
       style="fill:url(#linear-gradient)" />
  </g>
</svg>
